<?xml version="1.0" encoding="UTF-8"?>
<svg id="uuid-c8b62a5d-98ef-4d0c-93b2-1eef5bed7249" data-name="Capa 1" xmlns="http://www.w3.org/2000/svg" viewBox="0 0 1019.255 1002.537">
  <path d="M807.081,750.648c0,54.054,.197,108.109-.104,162.161-.11,19.716,6.258,35.063,23.259,46.479,5.621,3.774,10.759,3.068,16.033,3.623,5.616,.59,7.181,2.375,7.46,7.923,1.581,31.518,1.733,31.521-29.079,31.524-48.577,.005-97.156-.19-145.731,.177-7.71,.058-10.739-2.051-9.655-9.672,.254-1.786-.028-3.646-.033-5.472-.018-6.574-1.76-13.81,.427-19.545,2.493-6.535,11.221-3.792,16.945-6.098,19.282-7.768,32.947-26.36,32.956-47.486,.044-108.109-.034-216.219-.41-324.328-.101-29.12-17.679-47.215-42.131-58.537-23.784-11.013-45.196-3.111-62.897,14.244-37.288,36.561-74.089,73.621-110.786,110.776-4.96,5.022-7.379,5.101-12.348,.017-35.225-36.035-70.721-71.806-106.296-107.497-31.447-31.549-72.158-28.385-97.437,7.245-7.022,9.897-10.03,20.991-10.043,32.878-.119,108.111-.22,216.223-.115,324.334,.027,27.403,16.416,46.655,43.179,50.637,5.695,.847,7.026,2.402,7.183,7.813,.885,30.463,1.023,30.468-28.864,30.473-48.578,.009-97.156-.167-145.731,.184-7.564,.054-10.835-1.795-9.714-9.575,.361-2.503,.028-5.105,.019-7.662-.022-6.208-1.516-12.898,.312-18.504,2.343-7.187,10.579-2.885,15.985-4.959,16.064-6.162,29.248-22.377,29.625-39.818,.337-15.57-1.732-31.429-1.227-46.67,1.003-30.209,.47-60.378,.623-90.549,.326-64.279-.117-128.562-.166-192.844-.061-79.199,46.119-137.656,123.474-153.913,53.874-11.322,99.948,5.631,138.477,44.002,14.482,14.422,28.394,29.432,42.195,44.513,4.187,4.575,6.721,4.83,11.034,.201,13.936-14.959,28.029-29.79,42.511-44.22,42.09-41.938,92.072-58.648,149.895-41.789,58.928,17.182,94.475,58.022,108.634,117.366,2.598,10.89,3.172,22.296,3.122,33.685-.233,52.959-.103,105.92-.103,158.881-.16,0-.319,0-.479,0Z" style="fill: #e60576;"/>
  <path d="M263.555,268.124c7.33,5.45,14.049,6.496,21.137,6.524,80.718,.321,161.436,.982,242.154,.978,86.555-.004,173.11-.543,259.664-1.01,27.447-.148,34.178,3.62,37.742,30.093,2.46,18.271,1.52,37.239,.031,55.729-1.197,14.863-7.992,19.099-23.488,19.098-51.87-.005-103.739-.03-155.609-.028-149.763,.004-299.527,.013-449.29,.031-21.004,.002-28.932-6.429-27.537-27.111,3.105-46.045-4.274-89.623-23.961-131.534-8.633-18.378-2.846-28.698,16.462-35.084,101.158-33.459,202.364-66.771,303.527-100.212,82.195-27.171,164.364-54.417,246.52-81.705,27.493-9.131,40.057-2.708,48.711,24.701,4.81,15.234,10.471,30.198,15.341,45.414,4.85,15.153,.717,22.426-14.184,27.386-119.378,39.735-238.725,79.561-358.093,119.325-38.548,12.841-77.151,25.521-115.682,38.412-7.534,2.521-14.855,5.678-23.443,8.993Z" style="fill: #e60576;"/>
  <path d="M354.759,703.456c40.486,39.429,81.762,79.637,123.054,119.829,6.781,6.601,13.113,17.571,20.601,18.451,7.635,.897,13.806-11.062,20.335-17.647,37.769-38.092,75.382-76.339,113.035-114.546,2.499-2.536,4.89-5.179,9.302-9.867,0,15.527,0,28.39,0,41.254,0,16.79-.244,33.585,.119,50.368,.144,6.623-1.542,11.486-6.433,16.345-44.013,43.733-87.826,87.669-131.419,131.821-4.932,4.996-7.387,5.236-12.438,.111-43.554-44.185-87.425-88.056-131.185-132.038-2.545-2.558-5.063-4.945-5.045-9.212,.136-32.34,.074-64.68,.074-94.868Z" style="fill: #e60576;"/>
</svg>