<?xml version="1.0" encoding="UTF-8"?>
<svg id="uuid-95772d23-4ed3-49c2-a2d1-0d7b1ab76356" data-name="Capa 1" xmlns="http://www.w3.org/2000/svg" viewBox="0 0 1019.255 825.981">
  <path d="M694.039,445.145c0,32.055,.117,64.11-.062,96.164-.065,11.692,3.711,20.793,13.793,27.563,3.333,2.238,6.38,1.82,9.508,2.148,3.33,.35,4.259,1.409,4.424,4.699,.937,18.69,1.027,18.693-17.244,18.694-28.807,.003-57.615-.113-86.421,.105-4.572,.034-6.369-1.216-5.726-5.735,.151-1.059-.017-2.162-.019-3.245-.01-3.898-1.044-8.189,.253-11.591,1.478-3.875,6.654-2.249,10.049-3.616,11.435-4.606,19.538-15.632,19.543-28.16,.026-64.11-.02-128.221-.243-192.331-.06-17.268-10.484-27.999-24.984-34.713-14.104-6.531-26.802-1.845-37.299,8.447-22.112,21.681-43.936,43.658-65.698,65.692-2.941,2.978-4.376,3.025-7.323,.01-20.889-21.369-41.938-42.582-63.035-63.747-18.648-18.709-42.791-16.833-57.782,4.297-4.164,5.869-5.948,12.448-5.956,19.497-.07,64.111-.13,128.223-.068,192.335,.016,16.25,9.735,27.667,25.606,30.028,3.377,.502,4.167,1.424,4.26,4.633,.525,18.065,.607,18.068-17.117,18.071-28.807,.005-57.615-.099-86.421,.109-4.485,.032-6.425-1.065-5.76-5.678,.214-1.484,.016-3.027,.011-4.543-.013-3.682-.899-7.649,.185-10.973,1.39-4.262,6.273-1.711,9.479-2.941,9.526-3.654,17.345-13.27,17.568-23.613,.2-9.233-1.027-18.638-.727-27.676,.595-17.915,.279-35.805,.369-53.697,.193-38.118-.069-76.239-.099-114.359-.036-46.966,27.349-81.632,73.222-91.272,31.948-6.714,59.27,3.34,82.119,26.094,8.588,8.553,16.838,17.453,25.022,26.397,2.483,2.713,3.985,2.865,6.543,.119,8.264-8.871,16.622-17.666,25.21-26.223,24.96-24.87,54.6-34.779,88.89-24.781,34.945,10.189,56.025,34.408,64.421,69.6,1.541,6.458,1.881,13.222,1.852,19.975-.138,31.406-.061,62.812-.061,94.219-.095,0-.189,0-.284,0Z" style="fill: #e60576;"/>
  <path d="M371.721,159.001c4.347,3.232,8.331,3.852,12.535,3.869,47.867,.19,95.734,.582,143.601,.58,51.328-.002,102.656-.322,153.984-.599,16.276-.088,20.268,2.147,22.381,17.845,1.459,10.835,.901,22.083,.018,33.048-.71,8.814-4.739,11.326-13.929,11.325-30.76-.003-61.519-.018-92.278-.017-88.812,.002-177.624,.008-266.435,.018-12.456,.001-17.157-3.813-16.33-16.077,1.842-27.305-2.535-53.148-14.209-78.001-5.12-10.899-1.688-17.018,9.762-20.805,59.988-19.841,120.004-39.596,179.996-59.427,48.743-16.113,97.47-32.27,146.19-48.452,16.304-5.415,23.754-1.606,28.886,14.648,2.852,9.034,6.21,17.908,9.098,26.931,2.876,8.986,.425,13.299-8.411,16.241-70.793,23.563-141.567,47.181-212.354,70.761-22.86,7.615-45.751,15.134-68.601,22.779-4.468,1.495-8.809,3.367-13.902,5.333Z" style="fill: #e60576;"/>
  <path d="M425.806,417.159c24.009,23.382,48.486,47.226,72.973,71.06,4.022,3.914,7.776,10.42,12.216,10.941,4.528,.532,8.187-6.56,12.059-10.465,22.397-22.589,44.702-45.27,67.031-67.928,1.482-1.504,2.9-3.071,5.516-5.851,0,9.208,0,16.836,0,24.464,0,9.957-.145,19.917,.071,29.869,.085,3.927-.915,6.812-3.815,9.693-26.1,25.934-52.082,51.989-77.933,78.172-2.925,2.963-4.38,3.105-7.376,.066-25.828-26.202-51.844-52.219-77.795-78.3-1.51-1.517-3.002-2.932-2.992-5.463,.081-19.178,.044-38.356,.044-56.258Z" style="fill: #e60576;"/>
  <path d="M529.744,723.551c.101,32.271,.142,64.543,.39,96.814,.026,3.333-1.058,4.061-4.041,3.938-4.542-.187-9.119-.316-13.639,.047-3.757,.301-4.139-1.405-4.134-4.496,.075-42.028,.092-84.056-.027-126.084-.01-3.557,.757-4.893,4.567-4.729,7.136,.309,14.297,.2,21.442,.023,2.76-.068,4.156,.756,5.252,3.432,12.469,30.459,25.087,60.857,38.206,92.581,7.066-17.54,13.784-33.814,20.179-50.214,5.207-13.351,10.109-26.823,14.968-40.306,1.371-3.804,2.911-5.999,7.686-5.582,6.88,.601,13.854,.255,20.783,.112,3.015-.062,4.533,.234,4.519,4.084-.156,42.244-.12,84.488,.019,126.732,.011,3.378-.777,4.336-4.242,4.451-17.616,.581-17.612,.694-17.612-16.977,0-28.378,0-56.756,0-86.823-5.437,12.914-10.18,24.4-15.098,35.809-6.711,15.568-13.606,31.058-20.301,46.633-1.324,3.08-2.856,4.548-6.625,4.536-14.281-.046-14.347,.174-20.196-13.13-10.481-23.839-20.873-47.716-31.303-71.577-.121-.503-.052-1.324-.894-.895-.191,.097,.057,1.058,.103,1.621Z" style="fill: #b3ebf2;"/>
  <path d="M21.218,721.138c0,33.538-.102,65.97,.122,98.4,.03,4.308-1.423,4.808-5.114,4.826-16.119,.075-16.119,.188-16.118-15.904,0-37.91,.081-75.82-.107-113.729-.022-4.453,.896-6.017,5.591-5.715,6.904,.444,13.857,.168,20.789,.083,2.561-.031,4.128,.284,5.243,3.304,11.3,30.599,24.204,60.56,37.022,91.68,3.293-8.095,6.484-15.585,9.404-23.18,8.54-22.205,17.085-44.409,25.338-66.722,1.434-3.876,3.136-5.394,7.334-5.152,6.693,.386,13.43,.26,20.138,.03,3.407-.117,4.785,.498,4.768,4.445-.18,42.242-.17,84.484-.082,126.726,.006,3.031-.61,3.981-3.834,4.127-17.209,.778-17.207,.886-17.209-16.042-.003-28.803,0-57.605,0-88.391-4.446,10.917-8.026,20.141-11.938,29.222-7.555,17.538-15.459,34.927-22.848,52.533-1.833,4.368-4.123,5.521-8.796,5.972-8.937,.863-13.442-1.862-16.963-10.664-9.864-24.658-21.353-48.658-30.838-73.497-.206-.54-.751-.95-1.901-2.349Z" style="fill: #b3ebf2;"/>
  <path d="M954.75,739.774c13.705-18.694,41.502-21.295,55.611-5.605,6.778,7.538,8.365,17.025,8.608,26.467,.513,19.898,.129,39.819,.285,59.729,.025,3.155-.967,3.877-4.022,3.995-17.139,.66-16.994,.749-17.148-16.037-.143-15.57,.696-31.15-.618-46.713-.619-7.324-2.756-13.783-10.079-16.659-7.785-3.058-15.272-1.615-21.874,3.547-7.402,5.788-11.205,13.509-11.277,22.872-.123,16.015-.191,32.034,.069,48.045,.066,4.082-1.058,5.399-5.036,4.907-5.312-.657-12.433,2.316-15.509-1.211-2.595-2.976-.73-9.895-.734-15.07-.03-37.658,.07-75.317-.172-112.974-.031-4.772,.875-6.175,5.873-6.08,15.448,.291,15.449,.048,15.462,15.212,.01,11.47,.032,22.941,.059,34.411,0,.169,.14,.338,.503,1.163Z" style="fill: #b3ebf2;"/>
  <path d="M750.588,824.277c-6.864,0-13.104,.104-19.339-.028-6.596-.14-3.294-5.614-4.643-9.201-12.184,10.764-26.418,12.862-41.476,9.287-14.061-3.339-21.316-13.984-21.07-29.235,.224-13.898,7.894-23.383,21.872-26.55,11.506-2.608,23.261-1.742,34.904-1.57,4.836,.071,6.209-.964,6.05-5.92-.375-11.68-3.719-17.017-13.211-19.201-11.299-2.6-21.618,1.466-25.65,10.793-1.171,2.71-2.416,2.975-4.723,2.887-3.892-.149-7.793-.217-11.687-.143-3.405,.065-4.971-.4-3.991-4.716,3.538-15.578,14.32-23.115,28.794-25.997,9.553-1.902,19.426-1.752,28.867,1.267,14.861,4.752,23.139,17.033,23.429,34.994,.273,16.882,.064,33.772,.104,50.659,.01,4.057-.417,8.168,1.768,12.676Zm-35.505-44.092c-6.051,.403-13.251,.29-20.026,2.665-5.773,2.024-9.091,6.099-8.95,12.656,.138,6.402,2.947,10.827,9.097,12.487,12.733,3.437,27.046-2.401,30.671-15.958,2.795-10.453,1.836-12.009-8.462-11.851-.432,.007-.863,0-2.33,0Z" style="fill: #b3ebf2;"/>
  <path d="M454.155,780.323c-10.174,.006-20.352,.148-30.521-.068-3.775-.08-4.682,.833-4.158,4.756,1.619,12.12,7.032,19.982,17.645,21.853,11.453,2.019,23.396,1.483,29.967-10.675,1.171-2.167,2.187-3.065,4.816-1.92,3.115,1.356,6.471,2.34,9.82,2.936,6.494,1.156,5.459,4.359,2.86,8.524-7.543,12.086-19.019,17.929-32.554,19.703-22.945,3.006-40.827-6.35-49.897-27.256-9.253-21.33-5.728-54.934,16.969-68.376,21.752-12.882,62.909-7.735,68.602,31.849,2.688,18.693,2.781,18.678-16.014,18.669-5.845-.003-11.69,0-17.535,.005Zm-10.703-15.753c7.139,0,14.28-.094,21.416,.05,2.561,.052,3.404-.601,3.015-3.286-1.652-11.404-11.079-19.935-22.586-20.229-12.939-.331-23.228,7.584-25.286,19.39-.478,2.743-.356,4.348,3.327,4.161,6.689-.34,13.408-.096,20.114-.085Z" style="fill: #b3ebf2;"/>
  <path d="M248.362,774.294c.332,25.23-14.477,45.988-37.803,50.702-26.533,5.362-52.531-11.743-57.172-38.53-3.602-20.794,.159-39.323,17.283-53.071,23.502-18.869,66.239-11.586,76.292,28.122,1.106,4.369,1.99,8.88,1.4,12.777Zm-21.565,1.519c-.191-2.935-.249-5.536-.548-8.109-1.343-11.568-10.131-21.892-20.378-24.035-11.427-2.39-21.694,2.095-27.894,12.698-4.895,8.37-4.997,17.645-3.6,26.9,1.847,12.229,11.157,21.672,22.128,22.927,13.125,1.5,22.8-4.156,27.784-16.2,1.929-4.662,2.292-9.574,2.508-14.181Z" style="fill: #b3ebf2;"/>
  <path d="M876.516,825.675c-26.698,.579-45.335-19.205-46.967-46.39-1.144-19.053,3.809-36.054,20.245-47.68,18.34-12.971,45.949-10.251,59.579,5.592,2.078,2.416,3.595,5.322,5.315,8.038,2.621,4.138,2.009,7.057-3.15,8.318-1.236,.302-2.461,.832-3.558,1.482-5.963,3.537-9.631,3.738-13.912-3.751-6.711-11.739-26.825-11.135-36.079-.102-9.827,11.717-10.366,32.244-1.54,44.741,10.171,14.402,33.158,14.328,40.518-1.01,1.419-2.956,2.68-3.103,5.266-1.693,2.623,1.43,5.4,2.879,8.283,3.472,6.25,1.285,6.358,4.105,3.384,8.952-8.617,14.046-21.5,19.781-37.385,20.031Z" style="fill: #b3ebf2;"/>
  <path d="M251.178,725.187c1.262,0,2.112-.056,2.952,.009,6.645,.512,14.887-2.615,19.51,1.183,4.252,3.494,4.763,11.596,6.814,17.704,6.069,18.077,12.083,36.173,18.128,54.286,2.793-.921,1.818-3.95,2.503-5.983,6.995-20.744,13.779-41.56,20.582-62.369,1.128-3.452,2.857-5.258,6.991-4.899,5.572,.483,11.217,.12,17.528,.12-7.412,20.141-14.666,39.814-21.89,59.498-4.283,11.671-8.637,23.318-12.703,35.065-1.166,3.369-2.735,4.562-6.437,4.582-17.054,.096-17.073,.245-22.863-15.337-10.342-27.831-20.658-55.671-31.115-83.86Z" style="fill: #b3ebf2;"/>
  <path d="M776.766,773.078c.008-8.01-.151-16.025,.077-24.029,.109-3.848-.503-5.541-5.099-5.489-14.609,.166-14.542-.071-13.863-14.667,.12-2.581,.383-4.262,3.486-3.627,.208,.043,.432,.013,.648,.006,4.72-.143,11.055,1.516,13.745-.894,3.232-2.895,.933-9.366,.996-14.277,.136-10.566,.016-10.568,10.207-10.574q10.473-.006,10.456,10.781c-.023,15.05-.007,15.419,14.965,14.787,6.083-.257,6.952,1.805,6.767,7.126-.399,11.465-.121,11.475-11.406,11.474q-10.354,0-10.355,10.412c.001,12.34-.053,24.681,.026,37.021,.073,11.468,3.827,15.271,15.333,14.771,4.656-.202,6.635,.331,6.442,5.811-.444,12.569-.106,12.581-12.944,12.59-20.094,.014-29.167-8.916-29.473-29.139-.111-7.359-.018-14.722-.01-22.082Z" style="fill: #b3ebf2;"/>
  <path d="M380.947,774.682c-.003,14.916-.168,29.836,.106,44.747,.075,4.084-1.044,5.286-5.023,4.92-5.107-.47-11.886,1.486-14.949-1.122-3.213-2.736-.959-9.716-.978-14.829-.099-25.941,.105-51.885-.178-77.823-.052-4.734,1.302-5.791,5.659-5.378,4.891,.464,11.393-1.592,14.347,.868,3.146,2.619,.919,9.329,.976,14.245,.134,11.456,.043,22.915,.04,34.372Z" style="fill: #b3ebf2;"/>
  <path d="M369.598,712.571c-7.488-.172-12.52-5.371-12.353-12.763,.165-7.328,5.39-12.141,13.055-12.026,7.399,.111,12.846,5.429,12.825,12.521-.022,7.544-5.436,12.455-13.526,12.269Z" style="fill: #b3ebf2;"/>
  <path d="M529.744,723.551c-.046-.563-.294-1.523-.103-1.621,.842-.429,.773,.391,.894,.895-.248,.26-.512,.502-.791,.726Z" style="fill: #001027;"/>
</svg>